<?xml version="1.0" encoding="utf-8"?>
<!-- Generator: Adobe Illustrator 24.2.3, SVG Export Plug-In . SVG Version: 6.00 Build 0)  -->
<svg version="1.1" xmlns="http://www.w3.org/2000/svg" xmlns:xlink="http://www.w3.org/1999/xlink" x="0px" y="0px"
	 viewBox="0 0 320.11 536.46" style="enable-background:new 0 0 320.11 536.46;" xml:space="preserve">
<style type="text/css">
	.st0{display:none;}
	.st1{fill:#DD1445;}
	.st2{font-family:'Bauhaus93';}
	.st3{font-size:100.511px;}
	.st4{fill:#28295B;}
	.st5{font-family:'Playball-Regular';}
	.st6{font-size:47px;}
	.st7{font-size:38px;}
	.st8{display:none;fill:none;stroke:#0B2326;stroke-width:12;stroke-miterlimit:10;}
	.st9{display:none;fill:none;stroke:#0B2326;stroke-width:9;stroke-miterlimit:10;}
	.st10{fill:#71122D;}
	.st11{fill:none;stroke:#C01638;stroke-width:14;stroke-miterlimit:10;}
	.st12{fill:#DD1344;}
	.st13{display:none;fill:none;stroke:#000000;stroke-width:14;stroke-miterlimit:10;}
</style>
<g id="Calque_1" class="st0">
</g>
<g id="Calque_2">
	<text transform="matrix(1 8.000000e-05 -8.000000e-05 1 59.5406 511.3132)" class="st1 st2 st3">****</text>
	<text transform="matrix(1 0 0 1 18.9044 389.3546)"><tspan x="0" y="0" class="st4 st5 st6">Hotel Beau-Site</tspan><tspan x="-18.9" y="45.6" class="st4 st5 st7">Adelboden · Seit 1912</tspan></text>
	<circle id="XMLID_2_" class="st8" cx="163.67" cy="83.08" r="251.78"/>
	<circle id="XMLID_1_" class="st9" cx="165.17" cy="83.98" r="273.09"/>
	<path class="st10" d="M71.4,364.87L71.4,364.87c0-45.25,49.26-67.82,98.32-96.79c32.92-19.43,66.96-39.53,70.81-57.21
		c0.97-4.47-0.03-8.68-3.14-13.23c-9.28-11.1-23.99-10.85-40.99-10.54c-22.44,0.39-50.34,0.89-66.7-30.38l-0.3-0.66
		c-23.39-58.76,75.35-101.37,80.09-103.29l5.27,12.97c-0.37,0.15-14.83,7.89-38.59,24.95c-29.61,21.26-41.01,41.4-33.89,59.86
		c12.36,23.28,31.61,22.94,53.88,22.55c19-0.34,38.66-0.68,52.23,15.87l0.33,0.43c5.47,7.84,7.32,16.06,5.5,24.44
		c-5.14,23.66-38.61,43.42-77.37,66.29C131.01,307.2,71.4,327.61,71.4,364.87z M214.75,65.74l-2.63-6.49L214.75,65.74
		C214.75,65.74,214.75,65.74,214.75,65.74L214.75,65.74z"/>
	<path class="st11" d="M29.2,29.5"/>
	<polygon class="st12" points="114.15,259.65 100.15,259.57 100.48,37.64 114.48,37.73 	"/>
	<path class="st12" d="M179.54,151.09L174.58,138c18.68-7.1,68.2-31.98,72.93-61.41c2.19-13.58-5.45-27.58-22.71-41.6
		c-66.96-54.42-197.66,8.06-198.94,8.75l0,0c1.38-0.75,30.89-24.74,73.16-35.63c25.05-6.45,48.18-9.08,68.74-7.8
		c26.27,1.63,48.43,9.64,65.87,23.81c21.42,17.41,30.74,35.82,27.69,54.71C254.32,122.25,182.59,149.93,179.54,151.09z"/>
	<path class="st13" d="M197.58-25.9c0,0-71.74,18.85-76.37,82.88c9.26,60.17,88.43,11.57,106.95,60.61
		c18.29,89.49-169.61,48.88-170.98,143.49"/>
</g>
</svg>
